# Blender 3.6.4
# www.blender.org
o eyebrows
v 0.047076 -0.055196 -0.040611
v 0.019179 0.008056 -0.177981
v -0.016081 -0.003719 -0.244069
v -0.066817 -0.046154 -0.294669
v 0.040127 -0.007238 -0.104905
v 0.062964 0.026369 -0.050752
v 0.046695 0.041723 -0.108015
v 0.019337 0.048011 -0.176412
v -0.020430 0.026570 -0.264129
v -0.084702 -0.024808 -0.319896
v 0.047076 -0.055196 0.040611
v 0.062964 0.026369 0.050754
v 0.068193 0.023125 -0.000000
v 0.066264 -0.050366 -0.000000
v 0.040127 -0.007238 0.104906
v 0.046695 0.041723 0.108015
v 0.019179 0.008056 0.177981
v -0.016081 -0.003719 0.244070
v -0.020430 0.026570 0.264129
v 0.019337 0.048011 0.176412
v -0.066817 -0.046154 0.294669
v -0.084702 -0.024809 0.319896
v 0.045431 -0.050366 -0.000000
v 0.026243 -0.055196 -0.040611
v 0.042131 0.026369 -0.050752
v 0.047360 0.023125 -0.000000
v 0.025862 0.041723 -0.108015
v -0.041263 0.026570 -0.264129
v -0.001497 0.048011 -0.176412
v -0.001654 0.008056 -0.177981
v 0.019293 -0.007238 -0.104905
v -0.105535 -0.024808 -0.319896
v -0.036915 -0.003719 -0.244069
v -0.087651 -0.046154 -0.294669
v 0.042131 0.026369 0.050754
v 0.026243 -0.055196 0.040611
v 0.025862 0.041723 0.108015
v 0.019293 -0.007238 0.104906
v -0.041263 0.026570 0.264129
v -0.036915 -0.003719 0.244070
v -0.001654 0.008056 0.177981
v -0.001497 0.048011 0.176412
v -0.105535 -0.024809 0.319896
v -0.087651 -0.046154 0.294669
vn -0.9050 0.0238 0.4248
vn -0.9407 0.1457 0.3063
vn -0.9148 0.1234 0.3846
vn -0.9426 0.1455 0.3007
vn -0.7232 0.1815 0.6663
vn -0.9050 0.0238 -0.4248
vn -0.9407 0.1456 -0.3063
vn -0.9148 0.1233 -0.3846
vn -0.9288 -0.0109 -0.3705
vn -0.7232 0.1815 -0.6663
vn 0.9050 -0.0238 -0.4248
vn 0.9407 -0.1457 -0.3063
vn 0.9148 -0.1234 -0.3846
vn 0.9288 0.0109 -0.3705
vn 0.7232 -0.1815 -0.6663
vn 0.9050 -0.0238 0.4248
vn 0.9407 -0.1457 0.3063
vn 0.9148 -0.1234 0.3846
vn 0.9426 -0.1456 0.3006
vn 0.7232 -0.1815 0.6663
vn -0.0000 0.8016 -0.5979
vn -0.0000 0.9788 0.2049
vn -0.0000 -0.9659 0.2590
vn -0.0000 0.8016 0.5979
vn -0.0000 0.7662 0.6426
vn -0.0000 0.9845 0.1754
vn -0.0000 0.7634 0.6459
vn -0.0000 0.9788 -0.2049
vn -0.0000 -0.7355 0.6776
vn -0.0000 -0.9958 0.0915
vn -0.0000 0.9930 -0.1181
vn -0.0000 0.7634 -0.6459
vn -0.0000 -0.9980 -0.0638
vn -0.0000 -0.9958 -0.0915
vn -0.0000 -0.7354 -0.6776
vn -0.0000 -0.9659 -0.2590
vn -0.0000 0.9930 0.1181
vn -0.0000 0.7662 -0.6426
vn -0.0000 -0.9980 0.0638
vn -0.0000 0.9845 -0.1754
vn -0.0000 -0.9714 -0.2374
vn -0.0000 -0.9714 0.2374
vn -0.9725 0.2035 0.1132
vn -0.9404 0.2158 0.2626
vn -0.8811 -0.0151 0.4728
vn -0.9288 -0.0109 0.3705
vn -0.7825 0.2618 0.5650
vn -0.9725 0.2035 -0.1132
vn -0.9404 0.2158 -0.2626
vn -0.8811 -0.0151 -0.4728
vn -0.9426 0.1455 -0.3007
vn -0.7825 0.2618 -0.5650
vn 0.9725 -0.2035 -0.1132
vn 0.9404 -0.2158 -0.2627
vn 0.8811 0.0151 -0.4728
vn 0.9426 -0.1456 -0.3006
vn 0.7825 -0.2618 -0.5650
vn 0.9725 -0.2035 0.1132
vn 0.9404 -0.2159 0.2627
vn 0.8811 0.0151 0.4728
vn 0.9288 0.0109 0.3705
vn 0.7825 -0.2618 0.5650
vt 1.000000 1.000000
vt 0.923811 0.000000
s 0
f 13/1/1 1/2/1 14/1/1
f 5/1/2 6/2/2 7/1/2
f 3/1/3 8/1/3 9/1/3
f 7/1/4 2/1/4 5/1/4
f 4/1/5 9/1/5 10/1/5
f 11/2/6 13/1/6 14/1/6
f 12/2/7 15/1/7 16/1/7
f 20/1/8 18/1/8 19/1/8
f 16/1/9 17/1/9 20/1/9
f 19/1/10 21/1/10 22/1/10
f 24/2/11 26/1/11 23/1/11
f 25/2/12 31/1/12 27/1/12
f 29/1/13 33/1/13 28/1/13
f 27/1/14 30/1/14 29/1/14
f 28/1/15 34/1/15 32/1/15
f 26/1/16 36/2/16 23/1/16
f 38/1/17 35/2/17 37/1/17
f 40/1/18 42/1/18 39/1/18
f 37/1/19 41/1/19 38/1/19
f 44/1/20 39/1/20 43/1/20
f 15/1/21 36/2/21 38/1/21
f 2/1/22 31/1/22 5/1/22
f 16/1/23 35/2/23 12/2/23
f 5/1/24 24/2/24 1/2/24
f 21/1/25 40/1/25 44/1/25
f 18/1/26 41/1/26 40/1/26
f 10/1/27 34/1/27 4/1/27
f 17/1/28 38/1/28 41/1/28
f 10/1/29 28/1/29 32/1/29
f 20/1/30 37/1/30 16/1/30
f 1/2/31 23/1/31 14/1/31
f 22/1/32 44/1/32 43/1/32
f 6/1/33 26/1/33 25/1/33
f 8/1/34 27/1/34 29/1/34
f 22/1/35 39/1/35 19/1/35
f 7/1/36 25/2/36 27/1/36
f 11/2/37 23/1/37 36/2/37
f 4/1/38 33/1/38 3/1/38
f 12/1/39 26/1/39 13/1/39
f 3/1/40 30/1/40 2/1/40
f 19/1/41 42/1/41 20/1/41
f 9/1/42 29/1/42 28/1/42
f 13/1/43 6/1/43 1/2/43
f 5/1/44 1/2/44 6/2/44
f 3/1/45 2/1/45 8/1/45
f 7/1/46 8/1/46 2/1/46
f 4/1/47 3/1/47 9/1/47
f 11/2/48 12/1/48 13/1/48
f 12/2/49 11/2/49 15/1/49
f 20/1/50 17/1/50 18/1/50
f 16/1/51 15/1/51 17/1/51
f 19/1/52 18/1/52 21/1/52
f 24/2/53 25/1/53 26/1/53
f 25/2/54 24/2/54 31/1/54
f 29/1/55 30/1/55 33/1/55
f 27/1/56 31/1/56 30/1/56
f 28/1/57 33/1/57 34/1/57
f 26/1/58 35/1/58 36/2/58
f 38/1/59 36/2/59 35/2/59
f 40/1/60 41/1/60 42/1/60
f 37/1/61 42/1/61 41/1/61
f 44/1/62 40/1/62 39/1/62
f 15/1/21 11/2/21 36/2/21
f 2/1/22 30/1/22 31/1/22
f 16/1/23 37/1/23 35/2/23
f 5/1/24 31/1/24 24/2/24
f 21/1/25 18/1/25 40/1/25
f 18/1/26 17/1/26 41/1/26
f 10/1/27 32/1/27 34/1/27
f 17/1/28 15/1/28 38/1/28
f 10/1/29 9/1/29 28/1/29
f 20/1/30 42/1/30 37/1/30
f 1/2/31 24/2/31 23/1/31
f 22/1/32 21/1/32 44/1/32
f 6/1/33 13/1/33 26/1/33
f 8/1/34 7/1/34 27/1/34
f 22/1/35 43/1/35 39/1/35
f 7/1/36 6/2/36 25/2/36
f 11/2/37 14/1/37 23/1/37
f 4/1/38 34/1/38 33/1/38
f 12/1/39 35/1/39 26/1/39
f 3/1/40 33/1/40 30/1/40
f 19/1/41 39/1/41 42/1/41
f 9/1/42 8/1/42 29/1/42
