# Blender 3.6.4
# www.blender.org
o eyebrows
v 0.047077 -0.055195 -0.040611
v 0.019180 0.008057 -0.177981
v -0.016080 -0.003718 -0.244070
v -0.066816 -0.046153 -0.294669
v 0.040128 -0.007237 -0.104906
v 0.062965 0.026370 -0.050753
v 0.046696 0.041724 -0.108015
v 0.019338 0.048012 -0.176412
v -0.020429 0.026571 -0.264129
v -0.084701 -0.024807 -0.319896
v 0.047077 -0.055195 0.040611
v 0.062965 0.026370 0.050754
v 0.068194 0.023126 -0.000000
v 0.066265 -0.050365 -0.000000
v 0.040128 -0.007237 0.104905
v 0.046696 0.041724 0.108015
v 0.019180 0.008057 0.177981
v -0.016080 -0.003718 0.244069
v -0.020429 0.026571 0.264129
v 0.019338 0.048012 0.176412
v -0.066816 -0.046153 0.294669
v -0.084701 -0.024808 0.319896
v 0.045431 -0.050365 -0.000000
v 0.026243 -0.055195 -0.040611
v 0.042131 0.026370 -0.050753
v 0.047361 0.023126 -0.000000
v 0.025862 0.041724 -0.108015
v -0.041262 0.026571 -0.264129
v -0.001496 0.048012 -0.176412
v -0.001653 0.008057 -0.177981
v 0.019294 -0.007237 -0.104906
v -0.105534 -0.024807 -0.319896
v -0.036914 -0.003718 -0.244070
v -0.087650 -0.046153 -0.294669
v 0.042131 0.026370 0.050754
v 0.026243 -0.055195 0.040611
v 0.025862 0.041724 0.108015
v 0.019294 -0.007237 0.104905
v -0.041262 0.026571 0.264129
v -0.036914 -0.003718 0.244069
v -0.001653 0.008057 0.177981
v -0.001496 0.048012 0.176412
v -0.105535 -0.024808 0.319896
v -0.087650 -0.046153 0.294669
vn 0.9050 -0.0238 -0.4248
vn 0.9407 -0.1457 -0.3063
vn 0.9148 -0.1234 -0.3846
vn 0.9288 0.0109 -0.3705
vn 0.7232 -0.1815 -0.6663
vn 0.9050 -0.0238 0.4248
vn 0.9407 -0.1457 0.3063
vn 0.9148 -0.1234 0.3846
vn 0.9426 -0.1455 0.3007
vn 0.7232 -0.1815 0.6663
vn -0.9050 0.0238 0.4248
vn -0.9407 0.1457 0.3063
vn -0.9148 0.1234 0.3846
vn -0.9426 0.1455 0.3007
vn -0.7232 0.1815 0.6663
vn -0.9050 0.0238 -0.4248
vn -0.9407 0.1457 -0.3063
vn -0.9148 0.1234 -0.3846
vn -0.9288 -0.0109 -0.3705
vn -0.7232 0.1815 -0.6663
vn -0.0000 -0.8016 0.5979
vn -0.0000 -0.9788 -0.2049
vn -0.0000 0.9659 -0.2590
vn -0.0000 -0.8016 -0.5979
vn -0.0000 -0.7662 -0.6426
vn -0.0000 -0.9845 -0.1754
vn -0.0000 -0.7634 -0.6460
vn -0.0000 -0.9788 0.2049
vn -0.0000 0.7355 -0.6776
vn -0.0000 0.9958 -0.0915
vn -0.0000 -0.9930 0.1181
vn -0.0000 -0.7634 0.6459
vn -0.0000 0.9980 0.0638
vn -0.0000 0.9958 0.0915
vn -0.0000 0.7354 0.6776
vn -0.0000 0.9659 0.2590
vn -0.0000 -0.9930 -0.1181
vn -0.0000 -0.7662 0.6426
vn -0.0000 0.9980 -0.0638
vn -0.0000 -0.9845 0.1754
vn -0.0000 0.9714 0.2374
vn -0.0000 0.9714 -0.2374
vn 0.9725 -0.2035 -0.1132
vn 0.9404 -0.2158 -0.2626
vn 0.8811 0.0151 -0.4728
vn 0.9426 -0.1455 -0.3007
vn 0.7825 -0.2618 -0.5650
vn 0.9725 -0.2035 0.1132
vn 0.9404 -0.2158 0.2627
vn 0.8811 0.0151 0.4728
vn 0.9288 0.0109 0.3705
vn 0.7825 -0.2618 0.5650
vn -0.9725 0.2035 0.1132
vn -0.9404 0.2158 0.2626
vn -0.8811 -0.0151 0.4728
vn -0.9288 -0.0109 0.3705
vn -0.7825 0.2618 0.5650
vn -0.9725 0.2035 -0.1132
vn -0.9404 0.2158 -0.2627
vn -0.8811 -0.0151 -0.4728
vn -0.9426 0.1455 -0.3007
vn -0.7825 0.2618 -0.5650
vt 0.923811 0.000000
vt 1.000000 1.000000
s 0
f 1/1/1 13/2/1 14/2/1
f 6/1/2 5/2/2 7/2/2
f 8/2/3 3/2/3 9/2/3
f 7/2/4 2/2/4 8/2/4
f 9/2/5 4/2/5 10/2/5
f 13/2/6 11/1/6 14/2/6
f 15/2/7 12/1/7 16/2/7
f 18/2/8 20/2/8 19/2/8
f 16/2/9 17/2/9 15/2/9
f 21/2/10 19/2/10 22/2/10
f 26/2/11 24/1/11 23/2/11
f 31/2/12 25/1/12 27/2/12
f 33/2/13 29/2/13 28/2/13
f 27/2/14 30/2/14 31/2/14
f 34/2/15 28/2/15 32/2/15
f 36/1/16 26/2/16 23/2/16
f 35/1/17 38/2/17 37/2/17
f 42/2/18 40/2/18 39/2/18
f 37/2/19 41/2/19 42/2/19
f 39/2/20 44/2/20 43/2/20
f 15/2/21 36/1/21 11/1/21
f 31/2/22 2/2/22 5/2/22
f 35/1/23 16/2/23 12/1/23
f 24/1/24 5/2/24 1/1/24
f 21/2/25 40/2/25 18/2/25
f 18/2/26 41/2/26 17/2/26
f 34/2/27 10/2/27 4/2/27
f 17/2/28 38/2/28 15/2/28
f 10/2/29 28/2/29 9/2/29
f 37/2/30 20/2/30 16/2/30
f 23/2/31 1/1/31 14/2/31
f 22/2/32 44/2/32 21/2/32
f 6/2/33 26/2/33 13/2/33
f 8/2/34 27/2/34 7/2/34
f 39/2/35 22/2/35 19/2/35
f 7/2/36 25/1/36 6/1/36
f 11/1/37 23/2/37 14/2/37
f 33/2/38 4/2/38 3/2/38
f 26/2/39 12/2/39 13/2/39
f 30/2/40 3/2/40 2/2/40
f 42/2/41 19/2/41 20/2/41
f 9/2/42 29/2/42 8/2/42
f 1/1/43 6/2/43 13/2/43
f 6/1/44 1/1/44 5/2/44
f 8/2/45 2/2/45 3/2/45
f 7/2/46 5/2/46 2/2/46
f 9/2/47 3/2/47 4/2/47
f 13/2/48 12/2/48 11/1/48
f 15/2/49 11/1/49 12/1/49
f 18/2/50 17/2/50 20/2/50
f 16/2/51 20/2/51 17/2/51
f 21/2/52 18/2/52 19/2/52
f 26/2/53 25/2/53 24/1/53
f 31/2/54 24/1/54 25/1/54
f 33/2/55 30/2/55 29/2/55
f 27/2/56 29/2/56 30/2/56
f 34/2/57 33/2/57 28/2/57
f 36/1/58 35/2/58 26/2/58
f 35/1/59 36/1/59 38/2/59
f 42/2/60 41/2/60 40/2/60
f 37/2/61 38/2/61 41/2/61
f 39/2/62 40/2/62 44/2/62
f 15/2/21 38/2/21 36/1/21
f 31/2/22 30/2/22 2/2/22
f 35/1/23 37/2/23 16/2/23
f 24/1/24 31/2/24 5/2/24
f 21/2/25 44/2/25 40/2/25
f 18/2/26 40/2/26 41/2/26
f 34/2/27 32/2/27 10/2/27
f 17/2/28 41/2/28 38/2/28
f 10/2/29 32/2/29 28/2/29
f 37/2/30 42/2/30 20/2/30
f 23/2/31 24/1/31 1/1/31
f 22/2/32 43/2/32 44/2/32
f 6/2/33 25/2/33 26/2/33
f 8/2/34 29/2/34 27/2/34
f 39/2/35 43/2/35 22/2/35
f 7/2/36 27/2/36 25/1/36
f 11/1/37 36/1/37 23/2/37
f 33/2/38 34/2/38 4/2/38
f 26/2/39 35/2/39 12/2/39
f 30/2/40 33/2/40 3/2/40
f 42/2/41 39/2/41 19/2/41
f 9/2/42 28/2/42 29/2/42
