# Blender 3.6.4
# www.blender.org
o neck
v 0.315720 0.067243 -0.078484
v 0.321059 -0.029851 -0.070690
v -0.344864 0.146632 -0.056424
v -0.380604 0.025933 -0.074716
v -0.308930 0.146129 -0.115152
v -0.259364 0.144537 -0.168822
v -0.336563 0.022124 -0.143949
v -0.273682 0.018656 -0.208110
v 0.064844 0.006784 -0.313053
v 0.147846 0.004089 -0.232762
v 0.161903 0.162035 -0.214215
v 0.046725 0.204690 -0.278092
v 0.264000 0.100697 -0.153630
v 0.244363 -0.004909 -0.133258
v 0.294726 0.084239 -0.115788
v 0.286500 -0.020259 -0.108082
v -0.056734 0.154169 -0.284100
v -0.040080 0.002627 -0.330400
v -0.197545 0.143543 -0.213324
v -0.196544 0.009694 -0.255052
v -0.125842 0.147299 -0.250113
v -0.116712 0.008703 -0.301755
v 0.216372 0.132740 -0.173056
v 0.197175 0.000084 -0.174346
v 0.300873 -0.181607 -0.047848
v -0.430618 -0.079741 -0.106734
v -0.380871 -0.093662 -0.182323
v -0.301412 -0.099539 -0.275991
v 0.075336 -0.158431 -0.387183
v 0.167658 -0.173203 -0.261825
v 0.251722 -0.179167 -0.154299
v 0.281786 -0.180392 -0.101650
v -0.021003 -0.139786 -0.415498
v -0.211729 -0.117424 -0.315604
v -0.119142 -0.121744 -0.379744
v 0.209246 -0.175902 -0.199956
v 0.109228 0.186139 -0.240057
v 0.107593 0.001283 -0.269599
v 0.119921 -0.165565 -0.326644
v -0.005640 0.168263 -0.292822
v 0.016288 0.004628 -0.337207
v 0.026988 -0.148338 -0.417426
v 0.315720 0.067243 0.078485
v 0.325373 0.055497 0.000000
v 0.332801 -0.029255 0.000000
v 0.321059 -0.029851 0.070691
v 0.109228 0.186139 0.240057
v 0.046725 0.204690 0.278093
v 0.147846 0.004088 0.232763
v 0.161903 0.162035 0.214215
v 0.216372 0.132740 0.173057
v 0.197175 0.000083 0.174347
v 0.107594 0.001283 0.269600
v 0.064844 0.006784 0.313053
v -0.196544 0.009694 0.255051
v -0.273682 0.018656 0.208110
v -0.259364 0.144537 0.168822
v -0.197545 0.143543 0.213324
v -0.336563 0.022124 0.143949
v -0.308930 0.146129 0.115152
v -0.380604 0.025933 0.074717
v -0.344864 0.146632 0.056424
v -0.398869 0.029486 0.000000
v -0.358587 0.150193 0.000000
v 0.264000 0.100697 0.153630
v 0.294726 0.084239 0.115788
v 0.286500 -0.020259 0.108083
v 0.244363 -0.004909 0.133259
v -0.056734 0.154169 0.284100
v -0.005640 0.168263 0.292823
v 0.016289 0.004628 0.337206
v -0.040080 0.002627 0.330401
v -0.125842 0.147299 0.250113
v -0.116712 0.008703 0.301755
v 0.314779 -0.182179 0.000000
v 0.300873 -0.181607 0.047849
v -0.380871 -0.093662 0.182322
v -0.430618 -0.079741 0.106734
v -0.455491 -0.070615 0.000000
v -0.301412 -0.099539 0.275991
v 0.119921 -0.165565 0.326645
v 0.075336 -0.158432 0.387182
v 0.251722 -0.179167 0.154299
v 0.209246 -0.175902 0.199956
v 0.281786 -0.180392 0.101649
v 0.026988 -0.148338 0.417426
v -0.021003 -0.139786 0.415499
v -0.119142 -0.121744 0.379745
v -0.211729 -0.117424 0.315605
v 0.167658 -0.173203 0.261825
v 0.315720 0.366252 -0.078484
v -0.344864 0.445641 -0.056424
v -0.308930 0.445138 -0.115152
v -0.259364 0.443547 -0.168822
v 0.161903 0.461044 -0.214215
v 0.046725 0.503700 -0.278092
v 0.264000 0.399707 -0.153630
v 0.294726 0.383248 -0.115788
v -0.056734 0.453178 -0.284100
v -0.197545 0.442552 -0.213324
v -0.125842 0.446309 -0.250113
v 0.216372 0.431749 -0.173056
v 0.109228 0.485148 -0.240057
v -0.005640 0.467272 -0.292822
v 0.315720 0.366252 0.078485
v 0.325373 0.354507 0.000000
v 0.109228 0.485148 0.240057
v 0.046725 0.503700 0.278093
v 0.161903 0.461044 0.214215
v 0.216372 0.431749 0.173057
v -0.259364 0.443547 0.168822
v -0.197545 0.442552 0.213324
v -0.308930 0.445138 0.115152
v -0.344864 0.445641 0.056424
v -0.358587 0.449202 0.000000
v 0.264000 0.399707 0.153630
v 0.294726 0.383248 0.115788
v -0.056734 0.453178 0.284100
v -0.005640 0.467272 0.292823
v -0.125842 0.446309 0.250113
vn 0.9827 0.0861 -0.1640
vn 0.6153 0.0377 -0.7874
vn 0.5513 0.1938 -0.8115
vn -0.5532 0.3049 -0.7753
vn -0.6760 0.2885 -0.6781
vn -0.8084 0.3148 -0.4974
vn -0.9204 0.3089 -0.2397
vn 0.4825 -0.1021 -0.8699
vn 0.7325 -0.0144 -0.6806
vn -0.1248 0.2441 -0.9617
vn -0.4825 0.2777 -0.8307
vn -0.3225 0.2440 -0.9146
vn 0.6187 -0.2582 -0.7420
vn 0.9538 -0.1124 -0.2786
vn -0.7051 0.4511 -0.5471
vn -0.8480 0.4735 -0.2381
vn -0.6506 0.4872 -0.5825
vn 0.7858 0.2940 -0.5441
vn 0.7315 0.1121 -0.6725
vn 0.8670 -0.0455 -0.4962
vn 0.9269 -0.1734 -0.3328
vn -0.1214 0.4971 -0.8591
vn -0.2217 0.4781 -0.8498
vn -0.2881 0.4397 -0.8507
vn -0.4933 0.4531 -0.7425
vn 0.8199 0.1807 -0.5432
vn 0.6739 0.0267 -0.7384
vn 0.6551 0.1930 -0.7305
vn 0.1448 0.1850 -0.9720
vn 0.3946 0.3969 -0.8287
vn 0.9827 0.0861 0.1640
vn 0.7565 -0.1032 0.6459
vn 0.7155 0.1041 0.6908
vn -0.4802 0.2578 0.8384
vn -0.6949 0.3060 0.6508
vn -0.8084 0.3148 0.4974
vn -0.9201 0.3071 0.2432
vn 0.4825 -0.1021 0.8699
vn 0.7325 -0.0144 0.6806
vn -0.1248 0.2441 0.9617
vn -0.4513 0.2625 0.8529
vn -0.4456 0.2867 0.8481
vn 0.3530 -0.0420 0.9347
vn 0.9749 -0.1539 0.1606
vn -0.7232 0.4898 0.4870
vn -0.8471 0.4792 0.2299
vn -0.6253 0.4505 0.6372
vn 0.7024 0.2762 0.6560
vn 0.6581 0.1524 0.7373
vn 0.5417 0.1233 0.8315
vn 0.7272 -0.0489 0.6847
vn -0.1214 0.4971 0.8592
vn -0.2687 0.4980 0.8245
vn -0.3969 0.5254 0.7526
vn -0.4527 0.4270 0.7828
vn 0.8199 0.1807 0.5432
vn 0.4852 0.1338 0.8641
vn 0.7937 0.2485 0.5553
vn 0.4160 0.2896 0.8621
vn 0.5428 0.4195 0.7276
vn -0.1590 -0.9873 -0.0000
vn 0.4405 -0.0000 -0.8978
vn 0.7763 -0.0000 0.6303
vn 0.2708 -0.0000 0.9626
vn 0.8715 -0.0000 -0.4905
vn 0.9925 -0.0000 -0.1221
vn 0.8715 -0.0000 0.4905
vn 0.5198 -0.0000 -0.8543
vn -0.1683 -0.0000 0.9857
vn -0.4565 -0.0000 -0.8897
vn -0.4565 -0.0000 0.8897
vn 0.2708 -0.0000 -0.9626
vn -0.1683 -0.0000 -0.9857
vn -0.8530 -0.0000 0.5219
vn -0.5842 -0.0000 0.8116
vn -0.4413 -0.0000 0.8974
vn -0.4413 -0.0000 -0.8974
vn -0.7346 -0.0000 0.6785
vn 0.9925 -0.0000 0.1221
vn -0.5842 -0.0000 -0.8116
vn 0.4405 -0.0000 0.8978
vn 0.6029 -0.0000 0.7978
vn -0.7346 -0.0000 -0.6785
vn -0.9717 -0.0000 0.2363
vn 0.6029 -0.0000 -0.7978
vn 0.3777 -0.0000 0.9259
vn -0.8530 -0.0000 -0.5219
vn 0.5198 -0.0000 0.8543
vn 0.7763 -0.0000 -0.6303
vn -0.9717 -0.0000 -0.2363
vn 0.3777 -0.0000 -0.9259
vn 0.9923 0.0453 -0.1153
vn 0.7565 -0.1032 -0.6459
vn 0.7155 0.1041 -0.6908
vn -0.4803 0.2578 -0.8384
vn -0.6949 0.3060 -0.6508
vn -0.7975 0.2994 -0.5238
vn -0.9201 0.3071 -0.2432
vn 0.6918 -0.2587 -0.6742
vn 0.8454 -0.1052 -0.5237
vn -0.2319 0.2608 -0.9371
vn -0.4513 0.2625 -0.8529
vn -0.4456 0.2867 -0.8481
vn 0.3530 -0.0420 -0.9347
vn 0.9749 -0.1539 -0.1606
vn -0.7232 0.4898 -0.4870
vn -0.8471 0.4792 -0.2299
vn -0.6253 0.4505 -0.6372
vn 0.7024 0.2762 -0.6560
vn 0.6581 0.1524 -0.7373
vn 0.5417 0.1233 -0.8315
vn 0.7272 -0.0489 -0.6847
vn 0.0477 0.4665 -0.8832
vn -0.2687 0.4980 -0.8245
vn -0.3970 0.5254 -0.7526
vn -0.4527 0.4270 -0.7828
vn 0.7609 0.1443 -0.6326
vn 0.4852 0.1338 -0.8641
vn 0.7937 0.2485 -0.5553
vn 0.4160 0.2896 -0.8620
vn 0.5427 0.4195 -0.7276
vn 0.9923 0.0453 0.1153
vn 0.6153 0.0377 0.7874
vn 0.5513 0.1938 0.8115
vn -0.5532 0.3049 0.7753
vn -0.6760 0.2885 0.6781
vn -0.7975 0.2994 0.5238
vn -0.9204 0.3089 0.2397
vn 0.6918 -0.2587 0.6742
vn 0.8454 -0.1052 0.5237
vn -0.2319 0.2608 0.9371
vn -0.4825 0.2777 0.8307
vn -0.3225 0.2440 0.9146
vn 0.6187 -0.2582 0.7420
vn 0.9538 -0.1124 0.2786
vn -0.7051 0.4511 0.5471
vn -0.8480 0.4735 0.2381
vn -0.6506 0.4872 0.5825
vn 0.7858 0.2940 0.5441
vn 0.7315 0.1121 0.6725
vn 0.8670 -0.0455 0.4961
vn 0.9269 -0.1734 0.3328
vn 0.0477 0.4665 0.8832
vn -0.2217 0.4781 0.8498
vn -0.2881 0.4397 0.8507
vn -0.4933 0.4531 0.7425
vn 0.7609 0.1443 0.6326
vn 0.6739 0.0267 0.7384
vn 0.6551 0.1930 0.7305
vn 0.1448 0.1850 0.9720
vn 0.3946 0.3969 0.8287
vn -0.0411 -0.9992 -0.0000
vn -0.0032 -0.9998 0.0214
vn -0.6816 -0.5903 -0.4324
vn -0.1031 -0.9944 -0.0248
vn -0.0635 -0.9980 -0.0000
vn -0.1329 -0.9897 0.0528
vn -0.6816 -0.5903 0.4324
vn -0.2424 -0.9680 0.0644
vn -0.1747 -0.9845 0.0172
vn -0.2613 -0.9516 -0.1620
vn -0.2429 -0.9262 -0.2882
vn -0.3180 -0.9365 0.1478
vn -0.0614 -0.9981 -0.0003
vn -0.3865 -0.9005 -0.1991
vn -0.2425 -0.9680 -0.0645
vn -0.1747 -0.9845 -0.0172
vn -0.2613 -0.9516 0.1620
vn -0.2429 -0.9262 0.2882
vn -0.3285 -0.9309 -0.1597
vn -0.2159 -0.9747 0.0574
vn -0.1157 -0.9928 0.0302
vn -0.2260 -0.9736 0.0306
vn -0.2260 -0.9736 -0.0306
vn -0.1157 -0.9928 -0.0302
vn -0.1206 -0.9927 -0.0000
vn -0.0795 -0.9925 0.0929
vn -0.0795 -0.9925 -0.0929
vt 0.000000 0.000000
s 0
f 2/1/1 44/1/1 45/1/1
f 23/1/2 10/1/2 11/1/2
f 37/1/3 9/1/3 12/1/3
f 19/1/4 8/1/4 6/1/4
f 7/1/5 6/1/5 8/1/5
f 5/1/6 4/1/6 3/1/6
f 63/1/7 3/1/7 4/1/7
f 14/1/8 15/1/8 16/1/8
f 16/1/9 1/1/9 2/1/9
f 18/1/10 40/1/10 41/1/10
f 20/1/11 21/1/11 22/1/11
f 22/1/12 17/1/12 18/1/12
f 24/1/13 13/1/13 14/1/13
f 25/1/14 45/1/14 75/1/14
f 26/1/15 7/1/15 27/1/15
f 79/1/16 4/1/16 26/1/16
f 27/1/17 8/1/17 28/1/17
f 9/1/18 39/1/18 29/1/18
f 36/1/19 14/1/19 31/1/19
f 31/1/20 16/1/20 32/1/20
f 32/1/21 2/1/21 25/1/21
f 41/1/22 33/1/22 18/1/22
f 35/1/23 18/1/23 33/1/23
f 28/1/24 20/1/24 34/1/24
f 34/1/25 22/1/25 35/1/25
f 10/1/26 36/1/26 30/1/26
f 38/1/27 11/1/27 10/1/27
f 30/1/28 38/1/28 10/1/28
f 9/1/29 40/1/29 12/1/29
f 29/1/30 41/1/30 9/1/30
f 44/1/31 46/1/31 45/1/31
f 51/1/32 49/1/32 52/1/32
f 47/1/33 54/1/33 53/1/33
f 58/1/34 56/1/34 55/1/34
f 59/1/35 57/1/35 60/1/35
f 61/1/36 60/1/36 62/1/36
f 63/1/37 62/1/37 64/1/37
f 66/1/38 68/1/38 67/1/38
f 43/1/39 67/1/39 46/1/39
f 70/1/40 72/1/40 71/1/40
f 55/1/41 73/1/41 58/1/41
f 74/1/42 69/1/42 73/1/42
f 52/1/43 65/1/43 51/1/43
f 76/1/44 45/1/44 46/1/44
f 78/1/45 59/1/45 61/1/45
f 79/1/46 61/1/46 63/1/46
f 77/1/47 56/1/47 59/1/47
f 54/1/48 81/1/48 53/1/48
f 84/1/49 68/1/49 52/1/49
f 83/1/50 67/1/50 68/1/50
f 85/1/51 46/1/51 67/1/51
f 87/1/52 71/1/52 72/1/52
f 88/1/53 72/1/53 74/1/53
f 80/1/54 55/1/54 56/1/54
f 89/1/55 74/1/55 55/1/55
f 84/1/56 49/1/56 90/1/56
f 53/1/57 50/1/57 47/1/57
f 90/1/58 53/1/58 81/1/58
f 54/1/59 70/1/59 71/1/59
f 82/1/60 71/1/60 86/1/60
f 86/1/61 79/1/61 42/1/61
f 37/1/62 95/1/62 11/1/62
f 65/1/63 117/1/63 116/1/63
f 48/1/64 119/1/64 70/1/64
f 15/1/65 91/1/65 1/1/65
f 1/1/66 106/1/66 44/1/66
f 66/1/67 105/1/67 117/1/67
f 12/1/68 103/1/68 37/1/68
f 70/1/69 118/1/69 69/1/69
f 21/1/70 100/1/70 101/1/70
f 73/1/71 112/1/71 58/1/71
f 12/1/72 104/1/72 96/1/72
f 40/1/73 99/1/73 104/1/73
f 62/1/74 113/1/74 114/1/74
f 57/1/75 112/1/75 111/1/75
f 69/1/76 120/1/76 73/1/76
f 17/1/77 101/1/77 99/1/77
f 60/1/78 111/1/78 113/1/78
f 43/1/79 106/1/79 105/1/79
f 6/1/80 100/1/80 19/1/80
f 47/1/81 109/1/81 107/1/81
f 50/1/82 110/1/82 109/1/82
f 5/1/83 94/1/83 6/1/83
f 64/1/84 114/1/84 115/1/84
f 11/1/85 102/1/85 23/1/85
f 51/1/86 116/1/86 110/1/86
f 3/1/87 93/1/87 5/1/87
f 48/1/88 107/1/88 108/1/88
f 13/1/89 98/1/89 15/1/89
f 64/1/90 92/1/90 3/1/90
f 23/1/91 97/1/91 13/1/91
f 2/1/92 1/1/92 44/1/92
f 23/1/93 24/1/93 10/1/93
f 37/1/94 38/1/94 9/1/94
f 19/1/95 20/1/95 8/1/95
f 7/1/96 5/1/96 6/1/96
f 5/1/97 7/1/97 4/1/97
f 63/1/98 64/1/98 3/1/98
f 14/1/99 13/1/99 15/1/99
f 16/1/100 15/1/100 1/1/100
f 18/1/101 17/1/101 40/1/101
f 20/1/102 19/1/102 21/1/102
f 22/1/103 21/1/103 17/1/103
f 24/1/104 23/1/104 13/1/104
f 25/1/105 2/1/105 45/1/105
f 26/1/106 4/1/106 7/1/106
f 79/1/107 63/1/107 4/1/107
f 27/1/108 7/1/108 8/1/108
f 9/1/109 38/1/109 39/1/109
f 36/1/110 24/1/110 14/1/110
f 31/1/111 14/1/111 16/1/111
f 32/1/112 16/1/112 2/1/112
f 41/1/113 42/1/113 33/1/113
f 35/1/114 22/1/114 18/1/114
f 28/1/115 8/1/115 20/1/115
f 34/1/116 20/1/116 22/1/116
f 10/1/117 24/1/117 36/1/117
f 38/1/118 37/1/118 11/1/118
f 30/1/119 39/1/119 38/1/119
f 9/1/120 41/1/120 40/1/120
f 29/1/121 42/1/121 41/1/121
f 44/1/122 43/1/122 46/1/122
f 51/1/123 50/1/123 49/1/123
f 47/1/124 48/1/124 54/1/124
f 58/1/125 57/1/125 56/1/125
f 59/1/126 56/1/126 57/1/126
f 61/1/127 59/1/127 60/1/127
f 63/1/128 61/1/128 62/1/128
f 66/1/129 65/1/129 68/1/129
f 43/1/130 66/1/130 67/1/130
f 70/1/131 69/1/131 72/1/131
f 55/1/132 74/1/132 73/1/132
f 74/1/133 72/1/133 69/1/133
f 52/1/134 68/1/134 65/1/134
f 76/1/135 75/1/135 45/1/135
f 78/1/136 77/1/136 59/1/136
f 79/1/137 78/1/137 61/1/137
f 77/1/138 80/1/138 56/1/138
f 54/1/139 82/1/139 81/1/139
f 84/1/140 83/1/140 68/1/140
f 83/1/141 85/1/141 67/1/141
f 85/1/142 76/1/142 46/1/142
f 87/1/143 86/1/143 71/1/143
f 88/1/144 87/1/144 72/1/144
f 80/1/145 89/1/145 55/1/145
f 89/1/146 88/1/146 74/1/146
f 84/1/147 52/1/147 49/1/147
f 53/1/148 49/1/148 50/1/148
f 90/1/149 49/1/149 53/1/149
f 54/1/150 48/1/150 70/1/150
f 82/1/151 54/1/151 71/1/151
f 25/1/152 75/1/152 76/1/152
f 76/1/153 85/1/153 83/1/153
f 84/1/154 90/1/154 81/1/154
f 76/1/155 83/1/155 84/1/155
f 32/1/156 25/1/156 76/1/156
f 36/1/157 31/1/157 32/1/157
f 39/1/158 30/1/158 36/1/158
f 42/1/159 29/1/159 39/1/159
f 35/1/160 33/1/160 42/1/160
f 27/1/161 28/1/161 34/1/161
f 34/1/162 35/1/162 42/1/162
f 42/1/163 39/1/163 36/1/163
f 36/1/164 32/1/164 76/1/164
f 76/1/165 84/1/165 81/1/165
f 81/1/166 82/1/166 86/1/166
f 86/1/167 87/1/167 88/1/167
f 89/1/168 80/1/168 77/1/168
f 86/1/169 88/1/169 89/1/169
f 76/1/170 81/1/170 86/1/170
f 42/1/171 36/1/171 76/1/171
f 27/1/172 34/1/172 42/1/172
f 79/1/173 26/1/173 27/1/173
f 77/1/174 78/1/174 79/1/174
f 86/1/175 89/1/175 77/1/175
f 42/1/176 76/1/176 86/1/176
f 79/1/177 27/1/177 42/1/177
f 86/1/178 77/1/178 79/1/178
f 37/1/62 103/1/62 95/1/62
f 65/1/63 66/1/63 117/1/63
f 48/1/64 108/1/64 119/1/64
f 15/1/65 98/1/65 91/1/65
f 1/1/66 91/1/66 106/1/66
f 66/1/67 43/1/67 105/1/67
f 12/1/68 96/1/68 103/1/68
f 70/1/69 119/1/69 118/1/69
f 21/1/70 19/1/70 100/1/70
f 73/1/71 120/1/71 112/1/71
f 12/1/72 40/1/72 104/1/72
f 40/1/73 17/1/73 99/1/73
f 62/1/74 60/1/74 113/1/74
f 57/1/75 58/1/75 112/1/75
f 69/1/76 118/1/76 120/1/76
f 17/1/77 21/1/77 101/1/77
f 60/1/78 57/1/78 111/1/78
f 43/1/79 44/1/79 106/1/79
f 6/1/80 94/1/80 100/1/80
f 47/1/81 50/1/81 109/1/81
f 50/1/82 51/1/82 110/1/82
f 5/1/83 93/1/83 94/1/83
f 64/1/84 62/1/84 114/1/84
f 11/1/85 95/1/85 102/1/85
f 51/1/86 65/1/86 116/1/86
f 3/1/87 92/1/87 93/1/87
f 48/1/88 47/1/88 107/1/88
f 13/1/89 97/1/89 98/1/89
f 64/1/90 115/1/90 92/1/90
f 23/1/91 102/1/91 97/1/91
