# Blender 3.6.4
# www.blender.org
o tail_hair
v 0.003838 0.290264 -0.150000
v 0.028221 0.289883 -0.147118
v 0.051667 0.289516 -0.138582
v 0.073276 0.289179 -0.124720
v 0.092215 0.288883 -0.106066
v 0.107759 0.288640 -0.083336
v 0.119308 0.288459 -0.057403
v 0.126421 0.288348 -0.029264
v 0.128822 0.288310 0.000000
v 0.126421 0.288348 0.029264
v 0.119308 0.288459 0.057402
v 0.107759 0.288640 0.083336
v 0.092215 0.288883 0.106066
v 0.073275 0.289179 0.124720
v 0.051667 0.289516 0.138582
v 0.028221 0.289883 0.147118
v 0.003838 0.290264 0.150000
v -0.020546 0.290645 0.147118
v -0.043993 0.291011 0.138582
v -0.065600 0.291349 0.124720
v -0.084540 0.291645 0.106066
v -0.100083 0.291888 0.083336
v -0.111634 0.292068 0.057402
v -0.118747 0.292180 0.029264
v -0.121147 0.292217 0.000000
v -0.118747 0.292180 -0.029264
v -0.111634 0.292068 -0.057403
v -0.100083 0.291888 -0.083336
v -0.084540 0.291645 -0.106066
v -0.065600 0.291349 -0.124720
v -0.043993 0.291011 -0.138582
v -0.020546 0.290645 -0.147118
v 0.004653 0.118308 -0.150000
v 0.044551 0.118604 -0.147118
v 0.082917 0.118889 -0.138582
v 0.118274 0.119152 -0.124720
v 0.149265 0.119382 -0.106066
v 0.174699 0.119571 -0.083336
v 0.193598 0.119712 -0.057403
v 0.205235 0.119798 -0.029264
v 0.209166 0.119827 0.000000
v 0.205235 0.119798 0.029264
v 0.193598 0.119712 0.057402
v 0.174699 0.119571 0.083336
v 0.149265 0.119382 0.106066
v 0.118274 0.119152 0.124720
v 0.082917 0.118890 0.138582
v 0.044551 0.118604 0.147118
v 0.004653 0.118308 0.150000
v -0.035245 0.118012 0.147118
v -0.073611 0.117727 0.138582
v -0.108968 0.117464 0.124720
v -0.139959 0.117234 0.106066
v -0.165393 0.117045 0.083336
v -0.184293 0.116905 0.057402
v -0.195930 0.116818 0.029264
v -0.199860 0.116789 0.000000
v -0.195930 0.116818 -0.029264
v -0.184293 0.116905 -0.057403
v -0.165393 0.117045 -0.083336
v -0.139959 0.117234 -0.106066
v -0.108968 0.117464 -0.124720
v -0.073611 0.117727 -0.138582
v -0.035245 0.118012 -0.147118
v -0.005258 -0.067673 -0.150000
v 0.034640 -0.067376 -0.147118
v 0.073004 -0.067091 -0.138582
v 0.108363 -0.066829 -0.124720
v 0.139354 -0.066599 -0.106066
v 0.164788 -0.066410 -0.083336
v 0.183687 -0.066269 -0.057403
v 0.195325 -0.066183 -0.029264
v 0.199255 -0.066154 0.000000
v 0.195325 -0.066183 0.029264
v 0.183687 -0.066269 0.057403
v 0.164788 -0.066410 0.083336
v 0.139354 -0.066599 0.106066
v 0.108363 -0.066829 0.124720
v 0.073004 -0.067091 0.138582
v 0.034640 -0.067376 0.147118
v -0.005258 -0.067673 0.150000
v -0.045157 -0.067969 0.147118
v -0.083522 -0.068254 0.138582
v -0.118880 -0.068517 0.124720
v -0.149871 -0.068747 0.106066
v -0.175304 -0.068936 0.083336
v -0.194203 -0.069076 0.057403
v -0.205842 -0.069163 0.029264
v -0.209771 -0.069192 0.000000
v -0.205842 -0.069163 -0.029264
v -0.194203 -0.069076 -0.057403
v -0.175304 -0.068936 -0.083336
v -0.149871 -0.068747 -0.106066
v -0.118881 -0.068517 -0.124720
v -0.083522 -0.068254 -0.138582
v -0.045157 -0.067969 -0.147118
v -0.003229 -0.340899 -0.150000
v 0.004173 -0.340549 -0.147118
v 0.011290 -0.340213 -0.138582
v 0.017850 -0.339903 -0.124720
v 0.023599 -0.339631 -0.106066
v 0.028317 -0.339408 -0.083336
v 0.031824 -0.339242 -0.057403
v 0.033983 -0.339140 -0.029264
v 0.034712 -0.339106 0.000000
v 0.033983 -0.339140 0.029264
v 0.031824 -0.339242 0.057403
v 0.028317 -0.339408 0.083336
v 0.023599 -0.339631 0.106066
v 0.017850 -0.339902 0.124720
v 0.011290 -0.340213 0.138582
v 0.004173 -0.340549 0.147118
v -0.003229 -0.340899 0.150000
v -0.010631 -0.341249 0.147118
v -0.017748 -0.341585 0.138582
v -0.024307 -0.341895 0.124720
v -0.030057 -0.342167 0.106066
v -0.034775 -0.342390 0.083336
v -0.038281 -0.342555 0.057403
v -0.040440 -0.342657 0.029264
v -0.041169 -0.342692 0.000000
v -0.040440 -0.342657 -0.029264
v -0.038281 -0.342555 -0.057403
v -0.034775 -0.342390 -0.083336
v -0.030057 -0.342167 -0.106066
v -0.024307 -0.341895 -0.124720
v -0.017748 -0.341585 -0.138582
v -0.010631 -0.341249 -0.147118
vn -0.6899 0.1721 0.7032
vn -0.9230 0.0492 0.3816
vn 0.8920 0.3927 -0.2239
vn -0.7973 0.2533 0.5479
vn 0.9034 0.4224 -0.0736
vn -0.8638 0.3227 0.3870
vn 0.8960 0.4273 0.1208
vn -0.8992 0.3730 0.2288
vn 0.8479 0.3965 0.3519
vn -0.9127 0.4017 0.0754
vn 0.7606 0.3349 0.5561
vn -0.9056 0.4064 -0.1212
vn 0.6433 0.2547 0.7220
vn -0.8564 0.3769 -0.3530
vn 0.5072 0.1707 0.8448
vn -0.7670 0.3181 -0.5573
vn 0.3627 0.0960 0.9269
vn 0.1174 0.0006 -0.9931
vn -0.6476 0.2419 -0.7226
vn 0.2167 0.0397 0.9754
vn 0.3424 0.0326 -0.9390
vn -0.5098 0.1620 -0.8449
vn 0.0720 0.0069 0.9974
vn 0.5384 0.0986 -0.8369
vn -0.3641 0.0908 -0.9269
vn -0.1174 -0.0006 0.9931
vn 0.6913 0.1830 -0.6990
vn -0.2173 0.0371 -0.9754
vn -0.3415 0.0291 0.9394
vn 0.7966 0.2681 -0.5419
vn -0.0721 0.0061 -0.9974
vn -0.5367 0.0917 0.8388
vn 0.8598 0.3404 -0.3805
vn -0.7331 -0.4180 -0.5365
vn 0.9230 -0.0492 0.3816
vn -0.9897 0.0527 0.1329
vn 0.8075 -0.0430 0.5882
vn -0.9897 0.0527 -0.1328
vn 0.6661 -0.0355 0.7450
vn -0.9230 0.0492 -0.3816
vn 0.5157 -0.0275 0.8564
vn -0.8075 0.0430 -0.5883
vn 0.3651 -0.0195 0.9308
vn 0.0721 -0.0038 -0.9974
vn -0.6661 0.0355 -0.7450
vn 0.2172 -0.0116 0.9760
vn 0.2173 -0.0116 -0.9760
vn -0.5157 0.0275 -0.8563
vn 0.0721 -0.0038 0.9974
vn 0.3650 -0.0195 -0.9308
vn -0.3650 0.0195 -0.9308
vn -0.0721 0.0038 0.9974
vn 0.5157 -0.0275 -0.8564
vn -0.2173 0.0116 -0.9760
vn -0.2172 0.0116 0.9760
vn 0.6661 -0.0355 -0.7450
vn -0.0721 0.0038 -0.9974
vn -0.3651 0.0195 0.9308
vn 0.8075 -0.0430 -0.5883
vn -0.5157 0.0275 0.8564
vn 0.9230 -0.0492 -0.3816
vn -0.6661 0.0355 0.7450
vn 0.9897 -0.0527 -0.1329
vn -0.8075 0.0430 0.5883
vn 0.9897 -0.0527 0.1329
vn 0.0472 -0.9989 -0.0000
vn 0.3631 -0.1204 0.9239
vn 0.3627 0.0027 -0.9319
vn -0.6292 -0.3234 -0.7067
vn 0.2173 -0.0491 0.9749
vn 0.7669 -0.0855 -0.6360
vn -0.5019 -0.2199 -0.8365
vn 0.0721 -0.0080 0.9974
vn 0.8873 -0.2005 -0.4154
vn -0.3613 -0.1250 -0.9240
vn -0.3627 -0.0027 0.9319
vn 0.9122 -0.3023 -0.2767
vn -0.2165 -0.0521 -0.9749
vn -0.7626 -0.0963 0.6396
vn 0.9049 -0.3837 -0.1841
vn -0.0720 -0.0091 -0.9974
vn -0.8815 -0.2121 0.4218
vn 0.8883 -0.4441 -0.1173
vn -0.9062 -0.3135 0.2839
vn 0.8720 -0.4851 -0.0651
vn -0.8991 -0.3940 0.1905
vn 0.8607 -0.5087 -0.0209
vn -0.8828 -0.4537 0.1222
vn 0.8509 -0.5129 0.1138
vn -0.8667 -0.4941 0.0683
vn 0.8114 -0.4796 0.3341
vn -0.8555 -0.5174 0.0219
vn 0.7380 -0.4106 0.5356
vn -0.8457 -0.5213 -0.1141
vn 0.6334 -0.3166 0.7061
vn -0.8062 -0.4876 -0.3350
vn 0.5049 -0.2141 0.8362
vn -0.5098 0.1620 0.8449
vn 0.8479 0.3965 -0.3519
vn -0.6476 0.2419 0.7226
vn 0.8960 0.4273 -0.1208
vn -0.7670 0.3182 0.5572
vn 0.9034 0.4224 0.0736
vn -0.8563 0.3769 0.3530
vn 0.8920 0.3927 0.2239
vn -0.9056 0.4064 0.1212
vn 0.8598 0.3404 0.3805
vn -0.9127 0.4017 -0.0754
vn 0.7966 0.2681 0.5419
vn -0.8992 0.3730 -0.2288
vn 0.6913 0.1830 0.6990
vn -0.8638 0.3227 -0.3870
vn 0.5384 0.0986 0.8369
vn 0.0720 0.0069 -0.9974
vn -0.7973 0.2533 -0.5479
vn 0.3424 0.0326 0.9390
vn 0.2167 0.0397 -0.9754
vn -0.6899 0.1721 -0.7032
vn 0.1174 0.0006 0.9931
vn 0.3627 0.0960 -0.9269
vn -0.5367 0.0917 -0.8388
vn -0.0721 0.0061 0.9974
vn 0.5072 0.1707 -0.8448
vn -0.3415 0.0291 -0.9394
vn -0.2173 0.0371 0.9754
vn 0.6433 0.2547 -0.7220
vn -0.1174 -0.0006 -0.9931
vn -0.3641 0.0908 0.9269
vn 0.7606 0.3349 -0.5561
vn -0.8828 -0.4537 -0.1222
vn -0.9897 0.0527 0.1328
vn 0.8075 -0.0430 0.5883
vn -0.9897 0.0527 -0.1329
vn 0.3650 -0.0195 0.9308
vn 0.2173 -0.0116 0.9760
vn 0.2172 -0.0116 -0.9760
vn -0.5157 0.0275 -0.8564
vn 0.3651 -0.0195 -0.9308
vn -0.3651 0.0195 -0.9308
vn -0.2172 0.0116 -0.9760
vn -0.2173 0.0116 0.9760
vn 0.0471 -0.9989 0.0001
vn 0.0476 -0.9989 -0.0000
vn 0.0475 -0.9989 -0.0000
vn 0.0469 -0.9989 -0.0000
vn 0.0471 -0.9989 -0.0000
vn 0.0468 -0.9989 -0.0001
vn 0.0469 -0.9989 -0.0002
vn 0.0473 -0.9989 -0.0000
vn 0.0474 -0.9989 -0.0000
vn 0.8873 -0.2005 0.4154
vn 0.0721 -0.0080 -0.9974
vn -0.8991 -0.3940 -0.1905
vn 0.7669 -0.0855 0.6360
vn 0.2173 -0.0491 -0.9749
vn -0.9062 -0.3135 -0.2839
vn 0.3627 0.0027 0.9319
vn 0.3631 -0.1204 -0.9239
vn -0.8815 -0.2121 -0.4218
vn -0.0720 -0.0091 0.9974
vn 0.5049 -0.2141 -0.8362
vn -0.7626 -0.0963 -0.6396
vn -0.2165 -0.0521 0.9749
vn 0.6334 -0.3166 -0.7061
vn -0.3627 -0.0027 -0.9319
vn -0.3613 -0.1250 0.9240
vn 0.7380 -0.4106 -0.5356
vn -0.5019 -0.2199 0.8365
vn 0.8114 -0.4796 -0.3341
vn -0.6292 -0.3234 0.7067
vn 0.8509 -0.5129 -0.1138
vn -0.7331 -0.4180 0.5365
vn 0.8607 -0.5087 0.0209
vn -0.8062 -0.4876 0.3350
vn 0.8720 -0.4851 0.0651
vn -0.8457 -0.5213 0.1141
vn 0.8883 -0.4441 0.1173
vn -0.8555 -0.5174 -0.0219
vn 0.9049 -0.3837 0.1841
vn -0.8667 -0.4941 -0.0683
vn 0.9121 -0.3023 0.2767
vt 0.375000 0.500000
vt 0.406250 0.500000
vt 0.281250 0.500000
vt 0.312500 0.500000
vt 0.781250 0.500000
vt 0.812500 0.500000
vt 0.343750 0.500000
vt 0.750000 0.500000
vt 0.718750 0.500000
vt 0.687500 0.500000
vt 0.250000 0.500000
vt 0.656250 0.500000
vt 0.218750 0.500000
vt 0.625000 0.500000
vt 0.187500 0.500000
vt 0.593750 0.500000
vt 0.156250 0.500000
vt 0.562500 0.500000
vt 0.968750 0.500000
vt 1.000000 0.500000
vt 0.125000 0.500000
vt 0.531250 0.500000
vt 0.937500 0.500000
vt 0.093750 0.500000
vt 0.500000 0.500000
vt 0.906250 0.500000
vt 0.062500 0.500000
vt 0.468750 0.500000
vt 0.875000 0.500000
vt 0.031250 0.500000
vt 0.437500 0.500000
vt 0.843750 0.500000
vt 0.000000 0.500000
vt 0.796822 0.014612
vt 0.514612 0.203178
vt 0.703178 0.485388
vt 0.750000 0.490000
vt 0.796822 0.485388
vt 0.841844 0.471731
vt 0.883337 0.449553
vt 0.919706 0.419706
vt 0.949553 0.383337
vt 0.971731 0.341844
vt 0.985388 0.296822
vt 0.990000 0.250000
vt 0.985388 0.203178
vt 0.971731 0.158156
vt 0.949553 0.116663
vt 0.919706 0.080294
vt 0.883337 0.050447
vt 0.841844 0.028269
vt 0.750000 0.010000
vt 0.703178 0.014612
vt 0.658156 0.028269
vt 0.616663 0.050447
vt 0.580294 0.080294
vt 0.550447 0.116663
vt 0.528269 0.158156
vt 0.510000 0.250000
vt 0.514612 0.296822
vt 0.528269 0.341844
vt 0.550447 0.383337
vt 0.580294 0.419706
vt 0.616663 0.449553
vt 0.658156 0.471731
s 0
f 21/1/1 52/2/1 20/2/1
f 56/3/2 87/4/2 55/4/2
f 8/5/3 39/6/3 7/6/3
f 22/7/4 53/1/4 21/1/4
f 9/8/5 40/5/5 8/5/5
f 23/4/6 54/7/6 22/7/6
f 9/8/7 42/9/7 41/8/7
f 24/3/8 55/4/8 23/4/8
f 10/9/9 43/10/9 42/9/9
f 25/11/10 56/3/10 24/3/10
f 11/10/11 44/12/11 43/10/11
f 25/11/12 58/13/12 57/11/12
f 12/12/13 45/14/13 44/12/13
f 26/13/14 59/15/14 58/13/14
f 13/14/15 46/16/15 45/14/15
f 27/15/16 60/17/16 59/15/16
f 14/16/17 47/18/17 46/16/17
f 2/19/18 33/20/18 1/20/18
f 28/17/19 61/21/19 60/17/19
f 15/18/20 48/22/20 47/18/20
f 3/23/21 34/19/21 2/19/21
f 29/21/22 62/24/22 61/21/22
f 16/22/23 49/25/23 48/22/23
f 4/26/24 35/23/24 3/23/24
f 30/24/25 63/27/25 62/24/25
f 18/28/26 49/25/26 17/25/26
f 5/29/27 36/26/27 4/26/27
f 31/27/28 64/30/28 63/27/28
f 19/31/29 50/28/29 18/28/29
f 6/32/30 37/29/30 5/29/30
f 32/30/31 33/33/31 64/30/31
f 20/2/32 51/31/32 19/31/32
f 7/6/33 38/32/33 6/32/33
f 92/17/34 123/15/34 91/15/34
f 43/10/35 74/9/35 42/9/35
f 57/11/36 88/3/36 56/3/36
f 44/12/37 75/10/37 43/10/37
f 57/11/38 90/13/38 89/11/38
f 45/14/39 76/12/39 44/12/39
f 58/13/40 91/15/40 90/13/40
f 46/16/41 77/14/41 45/14/41
f 59/15/42 92/17/42 91/15/42
f 47/18/43 78/16/43 46/16/43
f 33/20/44 66/19/44 65/20/44
f 60/17/45 93/21/45 92/17/45
f 48/22/46 79/18/46 47/18/46
f 34/19/47 67/23/47 66/19/47
f 61/21/48 94/24/48 93/21/48
f 49/25/49 80/22/49 48/22/49
f 35/23/50 68/26/50 67/23/50
f 62/24/51 95/27/51 94/24/51
f 50/28/52 81/25/52 49/25/52
f 36/26/53 69/29/53 68/26/53
f 63/27/54 96/30/54 95/27/54
f 51/31/55 82/28/55 50/28/55
f 37/29/56 70/32/56 69/29/56
f 64/30/57 65/33/57 96/30/57
f 52/2/58 83/31/58 51/31/58
f 38/32/59 71/6/59 70/32/59
f 53/1/60 84/2/60 52/2/60
f 39/6/61 72/5/61 71/6/61
f 54/7/62 85/1/62 53/1/62
f 40/5/63 73/8/63 72/5/63
f 55/4/64 86/7/64 54/7/64
f 42/9/65 73/8/65 41/8/65
f 112/34/66 120/35/66 128/36/66
f 79/18/67 110/16/67 78/16/67
f 65/20/68 98/19/68 97/20/68
f 93/21/69 124/17/69 92/17/69
f 80/22/70 111/18/70 79/18/70
f 66/19/71 99/23/71 98/19/71
f 94/24/72 125/21/72 93/21/72
f 81/25/73 112/22/73 80/22/73
f 67/23/74 100/26/74 99/23/74
f 95/27/75 126/24/75 94/24/75
f 81/25/76 114/28/76 113/25/76
f 68/26/77 101/29/77 100/26/77
f 96/30/78 127/27/78 95/27/78
f 82/28/79 115/31/79 114/28/79
f 69/29/80 102/32/80 101/29/80
f 65/33/81 128/30/81 96/30/81
f 83/31/82 116/2/82 115/31/82
f 70/32/83 103/6/83 102/32/83
f 84/2/84 117/1/84 116/2/84
f 71/6/85 104/5/85 103/6/85
f 85/1/86 118/7/86 117/1/86
f 72/5/87 105/8/87 104/5/87
f 86/7/88 119/4/88 118/7/88
f 74/9/89 105/8/89 73/8/89
f 87/4/90 120/3/90 119/4/90
f 75/10/91 106/9/91 74/9/91
f 88/3/92 121/11/92 120/3/92
f 76/12/93 107/10/93 75/10/93
f 90/13/94 121/11/94 89/11/94
f 77/14/95 108/12/95 76/12/95
f 91/15/96 122/13/96 90/13/96
f 78/16/97 109/14/97 77/14/97
f 21/1/98 53/1/98 52/2/98
f 56/3/2 88/3/2 87/4/2
f 8/5/99 40/5/99 39/6/99
f 22/7/100 54/7/100 53/1/100
f 9/8/101 41/8/101 40/5/101
f 23/4/102 55/4/102 54/7/102
f 9/8/103 10/9/103 42/9/103
f 24/3/104 56/3/104 55/4/104
f 10/9/105 11/10/105 43/10/105
f 25/11/106 57/11/106 56/3/106
f 11/10/107 12/12/107 44/12/107
f 25/11/108 26/13/108 58/13/108
f 12/12/109 13/14/109 45/14/109
f 26/13/110 27/15/110 59/15/110
f 13/14/111 14/16/111 46/16/111
f 27/15/112 28/17/112 60/17/112
f 14/16/113 15/18/113 47/18/113
f 2/19/114 34/19/114 33/20/114
f 28/17/115 29/21/115 61/21/115
f 15/18/116 16/22/116 48/22/116
f 3/23/117 35/23/117 34/19/117
f 29/21/118 30/24/118 62/24/118
f 16/22/119 17/25/119 49/25/119
f 4/26/120 36/26/120 35/23/120
f 30/24/121 31/27/121 63/27/121
f 18/28/122 50/28/122 49/25/122
f 5/29/123 37/29/123 36/26/123
f 31/27/124 32/30/124 64/30/124
f 19/31/125 51/31/125 50/28/125
f 6/32/126 38/32/126 37/29/126
f 32/30/127 1/33/127 33/33/127
f 20/2/128 52/2/128 51/31/128
f 7/6/129 39/6/129 38/32/129
f 92/17/130 124/17/130 123/15/130
f 43/10/35 75/10/35 74/9/35
f 57/11/131 89/11/131 88/3/131
f 44/12/132 76/12/132 75/10/132
f 57/11/133 58/13/133 90/13/133
f 45/14/39 77/14/39 76/12/39
f 58/13/40 59/15/40 91/15/40
f 46/16/41 78/16/41 77/14/41
f 59/15/42 60/17/42 92/17/42
f 47/18/134 79/18/134 78/16/134
f 33/20/44 34/19/44 66/19/44
f 60/17/45 61/21/45 93/21/45
f 48/22/135 80/22/135 79/18/135
f 34/19/136 35/23/136 67/23/136
f 61/21/137 62/24/137 94/24/137
f 49/25/49 81/25/49 80/22/49
f 35/23/138 36/26/138 68/26/138
f 62/24/139 63/27/139 95/27/139
f 50/28/52 82/28/52 81/25/52
f 36/26/53 37/29/53 69/29/53
f 63/27/140 64/30/140 96/30/140
f 51/31/141 83/31/141 82/28/141
f 37/29/56 38/32/56 70/32/56
f 64/30/57 33/33/57 65/33/57
f 52/2/58 84/2/58 83/31/58
f 38/32/59 39/6/59 71/6/59
f 53/1/60 85/1/60 84/2/60
f 39/6/61 40/5/61 72/5/61
f 54/7/62 86/7/62 85/1/62
f 40/5/63 41/8/63 73/8/63
f 55/4/64 87/4/64 86/7/64
f 42/9/65 74/9/65 73/8/65
f 128/36/66 97/37/66 98/38/66
f 98/38/142 99/39/142 100/40/142
f 100/40/143 101/41/143 102/42/143
f 102/42/144 103/43/144 104/44/144
f 104/44/145 105/45/145 106/46/145
f 106/46/146 107/47/146 108/48/146
f 108/48/147 109/49/147 110/50/147
f 110/50/148 111/51/148 112/34/148
f 112/34/66 113/52/66 114/53/66
f 114/53/146 115/54/146 116/55/146
f 116/55/149 117/56/149 118/57/149
f 118/57/146 119/58/146 120/35/146
f 120/35/144 121/59/144 122/60/144
f 122/60/146 123/61/146 124/62/146
f 124/62/149 125/63/149 126/64/149
f 126/64/146 127/65/146 128/36/146
f 128/36/66 98/38/66 100/40/66
f 100/40/66 102/42/66 104/44/66
f 104/44/66 106/46/66 108/48/66
f 108/48/149 110/50/149 112/34/149
f 112/34/66 114/53/66 116/55/66
f 116/55/150 118/57/150 120/35/150
f 120/35/146 122/60/146 124/62/146
f 124/62/146 126/64/146 128/36/146
f 128/36/66 100/40/66 104/44/66
f 104/44/66 108/48/66 112/34/66
f 112/34/66 116/55/66 120/35/66
f 120/35/66 124/62/66 128/36/66
f 128/36/66 104/44/66 112/34/66
f 79/18/151 111/18/151 110/16/151
f 65/20/152 66/19/152 98/19/152
f 93/21/153 125/21/153 124/17/153
f 80/22/154 112/22/154 111/18/154
f 66/19/155 67/23/155 99/23/155
f 94/24/156 126/24/156 125/21/156
f 81/25/157 113/25/157 112/22/157
f 67/23/158 68/26/158 100/26/158
f 95/27/159 127/27/159 126/24/159
f 81/25/160 82/28/160 114/28/160
f 68/26/161 69/29/161 101/29/161
f 96/30/162 128/30/162 127/27/162
f 82/28/163 83/31/163 115/31/163
f 69/29/164 70/32/164 102/32/164
f 65/33/165 97/33/165 128/30/165
f 83/31/166 84/2/166 116/2/166
f 70/32/167 71/6/167 103/6/167
f 84/2/168 85/1/168 117/1/168
f 71/6/169 72/5/169 104/5/169
f 85/1/170 86/7/170 118/7/170
f 72/5/171 73/8/171 105/8/171
f 86/7/172 87/4/172 119/4/172
f 74/9/173 106/9/173 105/8/173
f 87/4/174 88/3/174 120/3/174
f 75/10/175 107/10/175 106/9/175
f 88/3/176 89/11/176 121/11/176
f 76/12/177 108/12/177 107/10/177
f 90/13/178 122/13/178 121/11/178
f 77/14/179 109/14/179 108/12/179
f 91/15/180 123/15/180 122/13/180
f 78/16/181 110/16/181 109/14/181
